<?xml version="1.0" encoding="UTF-8" standalone="no"?>
<svg
   version="1.1"
   width="395"
   height="112"
   id="svg20"
   sodipodi:docname="logo.svg"
   inkscape:version="1.3.2 (091e20e, 2023-11-25, custom)"
   xmlns:inkscape="http://www.inkscape.org/namespaces/inkscape"
   xmlns:sodipodi="http://sodipodi.sourceforge.net/DTD/sodipodi-0.dtd"
   xmlns="http://www.w3.org/2000/svg"
   xmlns:svg="http://www.w3.org/2000/svg">
  <defs
     id="defs20">
    <rect
       x="137.01862"
       y="152.82846"
       width="347.81649"
       height="126.47872"
       id="rect24" />
    <rect
       x="571.78922"
       y="408.42087"
       width="498.00997"
       height="118.5738"
       id="rect23" />
    <rect
       x="661.37832"
       y="360.99135"
       width="57.969414"
       height="121.20878"
       id="rect22" />
    <rect
       x="2.6349734"
       y="245.05252"
       width="906.43084"
       height="260.86236"
       id="rect21" />
  </defs>
  <sodipodi:namedview
     id="namedview20"
     pagecolor="#505050"
     bordercolor="#eeeeee"
     borderopacity="1"
     inkscape:showpageshadow="0"
     inkscape:pageopacity="0"
     inkscape:pagecheckerboard="0"
     inkscape:deskcolor="#505050"
     inkscape:zoom="1.5180419"
     inkscape:cx="173.2495"
     inkscape:cy="90.57721"
     inkscape:window-width="1366"
     inkscape:window-height="745"
     inkscape:window-x="-8"
     inkscape:window-y="-8"
     inkscape:window-maximized="1"
     inkscape:current-layer="svg20" />
  <path
     d="M0 0 C1.65 0 3.3 0 5 0 C5 31.02 5 62.04 5 94 C3.35 94 1.7 94 0 94 C-0.495 83.605 -0.495 83.605 -1 73 C-4.3 72.67 -7.6 72.34 -11 72 C-11 77.61 -11 83.22 -11 89 C-26.51 89 -42.02 89 -58 89 C-58 76.46 -58 63.92 -58 51 C-44.8 51 -31.6 51 -18 51 C-18.33 47.7 -18.66 44.4 -19 41 C-38.305 40.505 -38.305 40.505 -58 40 C-58 27.46 -58 14.92 -58 2 C-42.49 2 -26.98 2 -11 2 C-10.505 9.92 -10.505 9.92 -10 18 C-7.03 18 -4.06 18 -1 18 C-0.67 12.06 -0.34 6.12 0 0 Z "
     fill="#1034F8"
     transform="translate(115,7)"
     id="path1" />
  <path
     d="M0 0 C1.65 0 3.3 0 5 0 C5.33 0.33 5.66 0.66 6 1 C8.18292774 1.23481693 10.37203174 1.41363323 12.5625 1.5625 C13.76003906 1.64628906 14.95757812 1.73007813 16.19140625 1.81640625 C17.11824219 1.87699219 18.04507813 1.93757812 19 2 C19.02312269 13.19573244 19.04091471 24.39145924 19.05181217 35.58721066 C19.05704116 40.78528115 19.0641391 45.98333536 19.07543945 51.18139648 C19.08626776 56.19342268 19.09227671 61.20543318 19.09487724 66.21747017 C19.09673159 68.13412282 19.1003524 70.05077457 19.10573006 71.96742058 C19.11293975 74.64228072 19.11399097 77.31707514 19.11352539 79.99194336 C19.11712067 80.7925116 19.12071594 81.59307983 19.12442017 82.41790771 C19.11405216 87.88594784 19.11405216 87.88594784 18 89 C15.81360547 89.07258946 13.62499611 89.08373783 11.4375 89.0625 C9.64119141 89.04896484 9.64119141 89.04896484 7.80859375 89.03515625 C6.41833984 89.01775391 6.41833984 89.01775391 5 89 C5 90.65 5 92.3 5 94 C3.35 94 1.7 94 0 94 C0 62.98 0 31.96 0 0 Z "
     fill="#0F31E8"
     id="path2"
     transform="translate(26,7)"
     style="fill:#1034f8;fill-opacity:1" />
  <text
     xml:space="preserve"
     id="text23"
     style="font-style:normal;font-variant:normal;font-weight:normal;font-stretch:normal;font-size:83.6898px;font-family:Century;-inkscape-font-specification:'Century, Normal';font-variant-ligatures:normal;font-variant-caps:normal;font-variant-numeric:normal;font-variant-east-asian:normal;white-space:pre;shape-inside:url(#rect24);display:inline;fill:#ffffff"
     transform="matrix(1.0826118,0,0,1.1057764,-25.908993,-162.07851)"><tspan
       x="137.01953"
       y="229.54195"
       id="tspan2">Liezer</tspan></text>
</svg>
